# xmcd
#
# Track frame offsets:
#	150
#	18075
#	35930
#	50932
#	72605
#	97572
#	115510
#	134932
#	152625
#	161920
#	180217
#	200097
#	220577
#	240957
#	265105
#	280320
#	297037
#	315732
#	336792
#
# Disc length: 4714
#
# Revision: 4
# Processed by: cddbd v1.5.1PL0 Copyright (c) Steve Scherf et al.
# Submitted via: VisiTrax 2.9.2.167 - For more info visit www.synapsa.com
# Normalized: r3:DSETVAR1
#
DISCID=17126813
DTITLE=Various Artist - The Ultimate Rhythm and Soul Collection - Disc 2
DYEAR=2002
DGENRE=
TTITLE0=Marvin Gaye - Sexual Healing
TTITLE1=Sade - Your Love is King
TTITLE2=Champaign - How bout Us
TTITLE3=Heatwave - Always and Forever
TTITLE4=Luther Vandross - Killing Me Softly
TTITLE5=Gregory Abbott - Shake You Down
TTITLE6=Isley Jasper Isley - Caravan of Love
TTITLE7=Earth Wind and Fire - After The Love has Gone
TTITLE8=Bill Withers - Ain't No Sunshine
TTITLE9=Maurice White - Stand By Me
TTITLE10=The Emotions - Flowers
TTITLE11=Mtume - Juicy Fruit
TTITLE12=Terence Trent D'Arby - Sign Your Name
TTITLE13=The Chimes - I Still Haven't Found What I'm Looking For
TTITLE14=Phoebe Snow - Every Night
TTITLE15=Cheryl Lynn - Got to Be Real
TTITLE16=Regina Belle - Baby Come to Me
TTITLE17=Trey Lorenz - Just to Be Close to You
TTITLE18=Gladys Knight and The Pips - The Wind Beneath My Wings
EXTD=
EXTT0=
EXTT1=
EXTT2=
EXTT3=
EXTT4=
EXTT5=
EXTT6=
EXTT7=
EXTT8=
EXTT9=
EXTT10=
EXTT11=
EXTT12=
EXTT13=
EXTT14=
EXTT15=
EXTT16=
EXTT17=
EXTT18=
PLAYORDER=
